# xmcd CD database file
#
# Track frame offsets:
#	150
#	19136
#	39236
#	55700
#	72937
#	87172
#	101957
#	110222
#	119838
#	133063
#	142359
#	155410
#	178436
#
# Disc length: 2662 seconds
#
# Revision: 0
# Processed by: cddbd v1.5.2PL0 Copyright (c) Steve Scherf et al.
# Submitted via: CDex 1.79
#
DISCID=ca0a640d
DTITLE=Louis Armstrong - Louis Armstrong at the Carnegie Hall, February 8th 1947
DYEAR=1974
DGENRE=Jazz
TTITLE0=Black and Blue
TTITLE1=I'm Confessin' That I Love you
TTITLE2=Up the Lazy River
TTITLE3=You Rascal You
TTITLE4=Save it  Pretty Mama
TTITLE5=Ain't Misbehavin'
TTITLE6=Struttin' with some Barbecue
TTITLE7=Dippermouth Blues (Sugar Foot Stomp
TTITLE8=Mahagony Hall Stomp
TTITLE9=Muskrat Rumble
TTITLE10=St. Louis Blues
TTITLE11=Rockin' Chair 1
TTITLE12=Tiger Rag
EXTD=YEAR: 1974
EXTT0=
EXTT1=
EXTT2=
EXTT3=
EXTT4=
EXTT5=
EXTT6=
EXTT7=
EXTT8=
EXTT9=
EXTT10=
EXTT11=
EXTT12=
PLAYORDER=
